<svg xmlns="http://www.w3.org/2000/svg" xmlns:xlink="http://www.w3.org/1999/xlink" width="500" zoomAndPan="magnify" viewBox="0 0 375 374.999991" height="500" preserveAspectRatio="xMidYMid meet" version="1.0"><defs><clipPath id="id1"><path d="M 6.886719 6.886719 L 368.386719 6.886719 L 368.386719 368.386719 L 6.886719 368.386719 Z M 6.886719 6.886719 " clip-rule="nonzero"/></clipPath><clipPath id="id2"><path d="M 113.816406 57.097656 L 261.566406 57.097656 L 261.566406 298.597656 L 113.816406 298.597656 Z M 113.816406 57.097656 " clip-rule="nonzero"/></clipPath><clipPath id="id3"><path d="M 113.8125 159.703125 L 261.5625 159.703125 L 261.5625 368.203125 L 113.8125 368.203125 Z M 113.8125 159.703125 " clip-rule="nonzero"/></clipPath><clipPath id="id4"><path d="M 113.816406 152 L 261.566406 152 L 261.566406 297 L 113.816406 297 Z M 113.816406 152 " clip-rule="nonzero"/></clipPath></defs><g clip-path="url(#id1)"><path fill="#0d1117" d="M 300.257812 368.386719 L 75.015625 368.386719 C 37.472656 368.386719 6.886719 337.796875 6.886719 300.257812 L 6.886719 75.015625 C 6.886719 37.472656 37.472656 6.886719 75.015625 6.886719 L 300.257812 6.886719 C 337.796875 6.886719 368.386719 37.472656 368.386719 75.015625 L 368.386719 300.257812 C 368.386719 337.796875 337.796875 368.386719 300.257812 368.386719 " fill-opacity="1" fill-rule="nonzero"/></g><g clip-path="url(#id2)"><path fill="#ffffff" d="M 188.417969 57.097656 C 187.363281 59.601562 186.894531 60.449219 186.640625 61.355469 C 179.597656 86.777344 168.070312 110.171875 154.882812 132.890625 C 143.921875 151.78125 132.894531 170.679688 123.074219 190.167969 C 110.277344 215.566406 110.394531 241.394531 126.386719 265.421875 C 142.867188 290.171875 167.054688 301.234375 196.472656 298.070312 C 238.132812 293.59375 271.78125 254.546875 258.574219 206.382812 C 253.578125 188.15625 243.125 171.179688 233.660156 154.480469 C 216.195312 123.652344 197.390625 93.558594 188.417969 57.097656 Z M 188.417969 57.097656 " fill-opacity="1" fill-rule="nonzero"/><path fill="#ffffff" d="M 188.417969 57.097656 C 197.390625 93.558594 216.195312 123.652344 233.660156 154.480469 C 243.125 171.179688 253.578125 188.15625 258.574219 206.382812 C 271.78125 254.546875 238.132812 293.59375 196.472656 298.070312 C 167.054688 301.234375 142.863281 290.171875 126.386719 265.421875 C 110.394531 241.394531 110.273438 215.566406 123.074219 190.167969 C 132.894531 170.679688 143.921875 151.78125 154.882812 132.890625 C 168.070312 110.171875 179.597656 86.777344 186.640625 61.355469 C 186.890625 60.449219 187.363281 59.601562 188.417969 57.097656 Z M 188.417969 57.097656 " fill-opacity="1" fill-rule="evenodd"/></g><g clip-path="url(#id3)"><path fill="#0d1117" d="M 187.6875 159.703125 C 146.886719 159.703125 113.8125 206.375 113.8125 263.953125 C 113.8125 321.527344 146.886719 368.203125 187.6875 368.203125 C 228.484375 368.203125 261.558594 321.527344 261.558594 263.953125 C 261.558594 206.375 228.484375 159.703125 187.6875 159.703125 " fill-opacity="1" fill-rule="nonzero"/></g><g clip-path="url(#id4)"><path fill="#ffffff" d="M 187.691406 152.367188 C 146.875 152.367188 113.816406 185.425781 113.816406 226.242188 C 113.816406 258.933594 134.960938 286.542969 164.328125 296.332031 C 168.019531 296.980469 169.40625 294.761719 169.40625 292.824219 C 169.40625 291.070312 169.3125 285.25 169.3125 279.0625 C 150.753906 282.480469 145.949219 274.539062 144.472656 270.382812 C 143.640625 268.261719 140.039062 261.703125 136.902344 259.949219 C 134.316406 258.5625 130.621094 255.148438 136.808594 255.054688 C 142.625 254.960938 146.78125 260.410156 148.167969 262.628906 C 154.816406 273.800781 165.433594 270.660156 169.683594 268.722656 C 170.328125 263.917969 172.269531 260.6875 174.390625 258.839844 C 157.957031 256.992188 140.78125 250.621094 140.78125 222.363281 C 140.78125 214.332031 143.640625 207.683594 148.351562 202.511719 C 147.613281 200.664062 145.027344 193.09375 149.089844 182.933594 C 149.089844 182.933594 155.277344 180.996094 169.40625 190.507812 C 175.316406 188.84375 181.59375 188.011719 187.875 188.011719 C 194.152344 188.011719 200.433594 188.84375 206.34375 190.507812 C 220.472656 180.902344 226.660156 182.933594 226.660156 182.933594 C 230.722656 193.09375 228.136719 200.664062 227.398438 202.511719 C 232.105469 207.683594 234.96875 214.238281 234.96875 222.363281 C 234.96875 250.714844 217.703125 256.992188 201.265625 258.839844 C 203.941406 261.148438 206.25 265.582031 206.25 272.507812 C 206.25 282.386719 206.160156 290.332031 206.160156 292.824219 C 206.160156 294.761719 207.542969 297.070312 211.238281 296.332031 C 225.902344 291.382812 238.648438 281.957031 247.675781 269.382812 C 256.703125 256.808594 261.5625 241.722656 261.566406 226.242188 C 261.566406 185.425781 228.507812 152.367188 187.691406 152.367188 Z M 187.691406 152.367188 " fill-opacity="1" fill-rule="evenodd"/></g></svg>