<svg xmlns="http://www.w3.org/2000/svg" xmlns:xlink="http://www.w3.org/1999/xlink" version="1.1" width="1000" height="1000" viewBox="0 0 1000 1000" xml:space="preserve">
<desc>Created with Fabric.js 3.5.0</desc>
<defs>
</defs>
<rect x="0" y="0" width="100%" height="100%" fill="rgba(255,255,255,0)"/>
<g transform="matrix(3.3462 0 0 3.3462 500.0019 500.0019)" id="532927">
<g style="" vector-effect="non-scaling-stroke">
		<g transform="matrix(1 0 0 1 -0.3901 -4.5461)" id="path0">
<path style="stroke: none; stroke-width: 1; stroke-dasharray: none; stroke-linecap: butt; stroke-dashoffset: 0; stroke-linejoin: miter; stroke-miterlimit: 4; is-custom-font: none; font-file-url: none; fill: rgb(255,255,255); fill-rule: evenodd; opacity: 1;" transform=" translate(-199.6099, -195.4539)" d="M 199.609 70.185 C 198.857 71.934 198.39 73.402 196.739 79.2 C 195.061 85.099 191.282 95.233 187.195 104.8 C 183.015 114.585 175.61 129.687 171.603 136.6 C 171.22 137.26 170.23 139.06 169.402 140.6 C 168.095 143.032 167.249 144.512 164.01 150.041 C 161.805 153.803 144.652 183.851 143.596 185.8 C 142.881 187.12 141.702 189.28 140.977 190.6 C 133.195 204.756 127.302 216.846 125.476 222.4 C 123.23 229.231 122.578 232.076 121.535 239.6 C 117.273 270.345 136.198 304.529 165.2 318.468 C 178.915 325.06 180 324.62 180 312.472 L 180 304.507 L 178.3 304.836 C 170.29 306.386 161.532 304.622 157.243 300.595 C 155.386 298.851 154.959 298.176 152.951 293.804 C 151.354 290.326 148.889 286.911 146.622 285.037 C 141.022 280.408 140.521 279.127 144.101 278.597 C 149.015 277.869 154.243 281.171 158.588 287.745 C 162.326 293.402 167.957 295.91 174.601 294.877 C 179.264 294.152 180.452 293.424 181.004 290.954 C 181.55 288.512 182.786 285.847 184.136 284.203 L 185.119 283.006 L 182.46 282.524 C 161.847 278.784 152.741 270.12 150.206 251.83 C 148.625 240.427 150.492 231.786 156.081 224.638 C 157.018 223.44 157.531 222.413 157.4 221.999 C 155.59 216.298 155.769 209.455 157.883 203.5 L 158.558 201.6 L 161.112 201.6 C 165.064 201.6 170.728 203.767 177.555 207.89 L 180.509 209.675 L 182.755 209.061 C 192.15 206.491 207.775 206.499 217.287 209.078 L 219.575 209.698 L 222.487 207.895 C 228.975 203.879 233.732 202.013 238.247 201.711 L 241.493 201.494 L 242.146 203.247 C 244.038 208.327 244.458 214.554 243.251 219.64 L 242.53 222.681 L 244.327 225.04 C 254.173 237.969 251.963 261.554 239.809 273.252 C 235.428 277.469 222.028 282.8 215.809 282.8 L 214.733 282.8 L 215.915 284.3 C 219.411 288.736 220.066 292.633 219.928 308.2 C 219.795 323.1 220.03 323.649 225.889 322.131 C 243.869 317.472 264.687 297.66 272.681 277.6 C 280.037 259.144 280.161 234.569 272.979 218.94 C 272.661 218.246 272.4 217.554 272.4 217.4 C 272.4 217.246 272.145 216.554 271.833 215.86 C 271.52 215.167 270.356 212.516 269.245 209.97 C 264.85 199.894 262.338 195.215 245.139 165.074 C 238.133 152.795 232.4 142.698 232.4 142.638 C 232.4 142.577 230.949 139.934 229.175 136.764 C 226.3 131.627 217.905 114.977 214.975 108.6 C 210.115 98.026 203.06 78.475 201.78 72.038 C 201.631 71.289 201.274 70.119 200.986 69.438 L 200.463 68.2 L 199.609 70.185" stroke-linecap="round"/>
</g>
		<g transform="matrix(1 0 0 1 0 3.7948)" id="path1">
<path style="stroke: none; stroke-width: 1; stroke-dasharray: none; stroke-linecap: butt; stroke-dashoffset: 0; stroke-linejoin: miter; stroke-miterlimit: 4; is-custom-font: none; font-file-url: none; fill: rgb(255,0,0); fill-opacity: 0; fill-rule: evenodd; opacity: 1;" transform=" translate(-200, -203.7948)" d="M 70.5 10.693 C 69.125 10.773 68 10.978 68 11.148 C 68 11.318 66.29 11.692 64.2 11.979 C 62.11 12.266 60.4 12.634 60.4 12.796 C 60.4 12.958 59.32 13.32 58 13.6 C 56.68 13.88 55.6 14.265 55.6 14.455 C 55.6 14.645 55.298 14.8 54.928 14.8 C 53.996 14.8 51.6 15.699 51.6 16.049 C 51.6 16.207 51.06 16.455 50.401 16.6 C 49.114 16.883 43.97 19.441 42 20.778 C 39.589 22.415 38.329 23.2 38.116 23.2 C 37.979 23.2 37.582 23.476 37.234 23.814 C 36.885 24.152 35.519 25.277 34.198 26.314 C 30.466 29.244 22.616 37.359 21.464 39.477 C 21.248 39.875 20.83 40.344 20.535 40.52 C 20.241 40.696 20 41.023 20 41.247 C 20 41.47 19.55 42.243 19 42.964 C 18.45 43.686 18 44.484 18 44.738 C 18 44.992 17.857 45.2 17.682 45.2 C 17.507 45.2 16.746 46.415 15.991 47.9 C 15.235 49.385 14.478 50.66 14.309 50.733 C 14.139 50.807 14 51.059 14 51.295 C 14 51.53 13.546 52.682 12.991 53.855 C 12.436 55.028 11.874 56.53 11.741 57.194 C 11.609 57.857 11.365 58.4 11.2 58.4 C 11.035 58.4 10.66 59.48 10.367 60.8 C 10.075 62.12 9.714 63.2 9.566 63.2 C 9.419 63.2 9.072 64.685 8.796 66.5 C 8.52 68.315 8.152 69.982 7.978 70.203 C 6.923 71.551 6.8 85.453 6.8 203.622 C 6.8 321.203 6.917 334.648 7.965 337 C 8.161 337.44 8.535 339.104 8.797 340.699 C 9.058 342.293 9.415 343.686 9.59 343.794 C 9.765 343.902 10.025 344.772 10.168 345.728 C 10.312 346.684 10.758 348.081 11.161 348.833 C 11.564 349.585 12.022 350.785 12.178 351.5 C 12.335 352.215 12.609 352.8 12.787 352.8 C 12.965 352.8 13.228 353.424 13.371 354.187 C 13.514 354.95 13.871 355.813 14.163 356.106 C 14.455 356.398 14.82 357.033 14.973 357.516 C 15.127 358 15.466 358.621 15.726 358.898 C 15.987 359.174 16.522 360.03 16.916 360.8 C 18.042 362.999 18.7 364.088 19.064 364.354 C 19.25 364.489 19.648 365.079 19.949 365.663 C 20.25 366.248 21.014 367.294 21.648 367.988 C 22.282 368.682 22.8 369.381 22.8 369.541 C 22.8 369.702 23.52 370.495 24.4 371.304 C 25.28 372.113 26 372.931 26 373.122 C 26 373.491 30.352 377.671 33.162 380 C 34.091 380.77 35.265 381.805 35.772 382.3 C 36.278 382.795 36.818 383.2 36.973 383.2 C 37.127 383.2 37.843 383.65 38.564 384.2 C 39.286 384.75 40.084 385.2 40.338 385.2 C 40.592 385.2 40.8 385.368 40.8 385.574 C 40.8 385.78 41.43 386.176 42.2 386.454 C 42.97 386.733 43.6 387.068 43.6 387.198 C 43.6 387.329 44.725 387.994 46.1 388.676 C 48.384 389.808 49.379 390.263 53.6 392.105 C 54.37 392.441 55.63 392.845 56.4 393.004 C 57.17 393.163 57.98 393.428 58.2 393.594 C 58.42 393.76 59.59 394.112 60.8 394.376 C 62.01 394.641 63.36 395.021 63.8 395.221 C 64.893 395.718 70.801 396.4 74.01 396.4 C 75.456 396.4 76.821 396.581 77.041 396.801 C 77.484 397.244 321.87 397.102 325.4 396.657 C 326.5 396.519 329.425 396.203 331.9 395.955 C 334.375 395.707 336.4 395.387 336.4 395.243 C 336.4 395.1 337.61 394.753 339.088 394.473 C 340.566 394.192 341.871 393.812 341.988 393.628 C 342.105 393.444 343.235 393.08 344.5 392.818 C 345.765 392.557 346.8 392.176 346.8 391.972 C 346.8 391.767 347.115 391.599 347.5 391.598 C 347.885 391.598 349.28 391.058 350.6 390.4 C 351.92 389.742 353.21 389.202 353.467 389.202 C 353.723 389.201 353.993 389.061 354.067 388.891 C 354.14 388.722 355.415 387.965 356.9 387.209 C 358.385 386.454 359.6 385.722 359.6 385.582 C 359.6 385.443 360.057 385.12 360.615 384.866 C 361.636 384.401 362.206 383.991 363.629 382.7 C 364.053 382.315 364.57 382 364.777 382 C 364.985 382 365.39 381.682 365.677 381.293 C 365.965 380.904 366.65 380.297 367.2 379.944 C 368.499 379.11 375.91 371.699 376.744 370.4 C 377.097 369.85 377.704 369.165 378.093 368.877 C 378.482 368.59 378.8 368.114 378.8 367.82 C 378.8 367.526 379.07 367.182 379.4 367.055 C 379.73 366.929 380 366.627 380 366.386 C 380 366.144 380.45 365.357 381 364.636 C 381.55 363.914 382 363.136 382 362.905 C 382 362.674 382.253 362.388 382.562 362.27 C 382.872 362.151 383.246 361.502 383.394 360.827 C 383.542 360.152 383.792 359.6 383.95 359.6 C 384.454 359.6 388.4 351.331 388.4 350.274 C 388.4 349.903 388.551 349.6 388.736 349.6 C 388.921 349.6 389.315 348.565 389.613 347.3 C 389.91 346.035 390.293 344.903 390.463 344.785 C 390.634 344.666 390.998 343.226 391.272 341.585 C 391.546 339.943 391.892 338.51 392.04 338.4 C 393.1 337.612 393.2 326.042 393.2 203.569 C 393.2 81.104 393.113 71.075 392.023 68.6 C 391.83 68.16 391.448 66.63 391.176 65.2 C 390.903 63.77 390.553 62.42 390.398 62.2 C 390.243 61.98 389.903 60.928 389.643 59.863 C 389.383 58.797 388.924 57.537 388.624 57.063 C 388.324 56.588 387.957 55.615 387.807 54.9 C 387.658 54.185 387.4 53.6 387.232 53.6 C 387.065 53.6 386.69 52.88 386.4 52 C 386.11 51.12 385.757 50.4 385.616 50.4 C 385.476 50.4 385.121 49.737 384.828 48.927 C 384.535 48.117 384.137 47.262 383.942 47.027 C 383.31 46.263 381.6 43.571 381.6 43.34 C 381.6 42.917 376.705 36.601 375.952 36.051 C 375.538 35.749 375.2 35.315 375.2 35.087 C 375.2 34.475 369.545 29.074 365.477 25.8 C 362.953 23.768 361.58 22.8 361.223 22.8 C 360.991 22.8 360.8 22.632 360.8 22.426 C 360.8 22.22 360.17 21.824 359.4 21.546 C 358.63 21.267 358 20.886 358 20.699 C 358 20.512 357.46 20.17 356.8 19.94 C 356.14 19.71 355.6 19.388 355.6 19.224 C 355.6 19.061 354.88 18.711 354 18.447 C 353.12 18.184 352.4 17.795 352.4 17.584 C 352.4 17.373 352.192 17.2 351.939 17.2 C 351.685 17.2 350.518 16.746 349.345 16.191 C 348.172 15.636 346.67 15.074 346.006 14.941 C 345.343 14.809 344.8 14.571 344.8 14.414 C 344.8 14.256 343.765 13.897 342.5 13.615 C 341.235 13.334 340.11 12.966 340 12.797 C 339.89 12.628 338.09 12.254 336 11.966 C 333.91 11.678 332.072 11.252 331.915 11.021 C 331.648 10.627 77.129 10.308 70.5 10.693 M 201.41 69.3 C 201.564 70.235 201.825 71.18 201.989 71.4 C 202.153 71.62 202.404 72.43 202.547 73.2 C 202.834 74.748 204.673 80.942 205.219 82.2 C 205.41 82.64 205.757 83.75 205.99 84.667 C 206.222 85.583 206.679 86.843 207.004 87.467 C 207.329 88.09 207.602 88.87 207.611 89.2 C 207.62 89.53 207.975 90.52 208.4 91.4 C 208.825 92.28 209.179 93.166 209.186 93.369 C 209.199 93.701 210.725 97.793 211.585 99.8 C 212.253 101.358 214.089 105.513 216.049 109.9 C 218.161 114.629 225.561 129.39 227.669 133.079 C 228.951 135.322 230 137.253 230 137.37 C 230 137.541 251.47 175.439 252.79 177.6 C 253.964 179.52 257.2 185.221 257.2 185.369 C 257.2 185.466 258.505 187.855 260.1 190.68 C 263.915 197.435 267.864 205.465 270.624 212.08 C 271.203 213.466 271.921 215.14 272.22 215.8 C 274.381 220.567 276.658 228.381 277.873 235.2 C 278.672 239.685 278.78 255.31 278.043 259.8 C 277.242 264.683 274.792 273.957 273.801 275.856 C 273.473 276.485 273.204 277.145 273.202 277.322 C 273.187 279.304 266.462 291.144 262.343 296.441 C 250.12 312.158 225.347 327.07 220.334 321.729 L 219.4 320.734 L 219.383 306.867 C 219.363 290.592 219.054 288.876 215.317 284.269 C 214.031 282.683 214.13 282.51 216.5 282.205 C 219.506 281.818 226.776 280.075 228.26 279.385 C 228.954 279.063 229.674 278.798 229.86 278.795 C 230.45 278.786 234.621 276.562 236.962 275.008 C 250.707 265.884 254.486 239.254 244.002 225.402 L 241.896 222.62 L 242.648 220.41 C 244.341 215.437 243.034 203.195 240.675 201.933 C 239.887 201.512 237.933 201.789 234 202.88 C 230.925 203.734 224.27 207.005 221.313 209.117 L 220.029 210.034 L 215.915 209.2 C 207.655 207.525 192.861 207.064 188.4 208.343 C 187.63 208.563 185.521 209.034 183.713 209.389 C 180.103 210.097 180.42 210.168 176.6 207.778 C 175.262 206.94 172.413 205.524 168.2 203.602 C 167.76 203.401 166.68 203.059 165.8 202.842 C 164.92 202.625 163.364 202.238 162.342 201.983 C 159.245 201.21 158.625 201.733 157.577 206 C 156.246 211.419 156.211 215.48 157.455 220.255 L 158.094 222.71 L 156.479 224.855 C 145.503 239.431 149.302 266.399 163.6 275.413 C 165.734 276.758 169.658 278.788 170.14 278.795 C 170.326 278.798 171.046 279.063 171.74 279.385 C 173.224 280.075 180.494 281.818 183.5 282.205 C 185.874 282.51 185.973 282.686 184.667 284.269 C 183.18 286.072 182.432 287.595 181.479 290.764 L 180.588 293.728 L 178.394 294.529 C 170.614 297.368 162.552 294.532 157.722 287.257 C 154.09 281.785 150.814 279.52 146.176 279.277 C 141.386 279.025 141.035 280.543 145.252 283.27 C 148.054 285.083 150.995 288.979 153.765 294.548 C 157 301.051 159.893 303.331 166.33 304.452 C 168.912 304.902 177.493 304.708 179.5 304.155 L 180.4 303.907 L 180.4 312.372 C 180.4 324.359 178.512 325.543 167.8 320.271 C 167.14 319.946 165.52 319.184 164.2 318.578 C 161.978 317.558 160.863 316.903 155.4 313.404 C 144.27 306.278 133.077 292.814 127.628 280 C 126.927 278.35 126.19 276.64 125.99 276.2 C 122.206 267.853 119.634 248.115 121.169 239.2 C 122.813 229.652 123.71 225.518 124.403 224.305 C 124.621 223.923 124.8 223.413 124.8 223.172 C 124.8 222.795 125.999 219.615 127.719 215.431 C 128.236 214.175 134.344 202.027 136.283 198.4 C 136.93 197.19 138.325 194.58 139.382 192.6 C 140.439 190.62 141.977 187.83 142.799 186.4 C 143.621 184.97 144.919 182.63 145.684 181.2 C 148.458 176.009 149.723 173.788 150.256 173.169 C 150.555 172.821 150.8 172.415 150.8 172.266 C 150.8 172.118 152.105 169.741 153.7 166.985 C 155.295 164.23 156.921 161.396 157.313 160.688 C 157.706 159.979 158.426 158.735 158.913 157.923 C 160.998 154.45 170.435 137.964 171.806 135.4 C 173.696 131.867 178.378 122.924 179.032 121.6 C 181.004 117.605 184.235 110.633 185.984 106.6 C 187.129 103.96 188.32 101.233 188.633 100.54 C 188.945 99.846 189.2 99.154 189.2 99 C 189.2 98.846 189.463 98.154 189.785 97.46 C 190.107 96.767 190.92 94.67 191.593 92.8 C 192.265 90.93 192.979 89.04 193.18 88.6 C 193.38 88.16 193.749 87.08 194 86.2 C 194.251 85.32 194.612 84.24 194.803 83.8 C 195.345 82.548 197.142 76.517 197.43 74.978 C 197.574 74.215 197.85 73.493 198.045 73.372 C 198.24 73.251 198.4 72.866 198.4 72.515 C 198.4 71.625 200.346 67.6 200.777 67.6 C 200.971 67.6 201.256 68.365 201.41 69.3" stroke-linecap="round"/>
</g>
		<g transform="matrix(1 0 0 1 -0.1392 62.2973)" id="path2">
<path style="stroke: none; stroke-width: 1; stroke-dasharray: none; stroke-linecap: butt; stroke-dashoffset: 0; stroke-linejoin: miter; stroke-miterlimit: 4; is-custom-font: none; font-file-url: none; fill: rgb(82,79,140); fill-opacity: 0; fill-rule: evenodd; opacity: 1;" transform=" translate(-199.8608, -262.2973)" d="M 198.9 207.487 C 199.505 207.578 200.495 207.578 201.1 207.487 C 201.705 207.395 201.21 207.32 200 207.32 C 198.79 207.32 198.295 207.395 198.9 207.487 M 120.967 247.6 C 120.967 251.89 121.026 253.645 121.098 251.5 C 121.17 249.355 121.17 245.845 121.098 243.7 C 121.026 241.555 120.967 243.31 120.967 247.6 M 278.555 248.2 C 278.556 251.06 278.62 252.178 278.697 250.683 C 278.774 249.189 278.774 246.849 278.696 245.483 C 278.618 244.118 278.555 245.34 278.555 248.2 M 156.8 269.325 C 156.8 269.394 157.385 269.979 158.1 270.625 L 159.4 271.8 L 158.225 270.5 C 157.13 269.288 156.8 269.016 156.8 269.325 M 144.3 279.089 C 145.015 279.178 146.185 279.178 146.9 279.089 C 147.615 279.001 147.03 278.928 145.6 278.928 C 144.17 278.928 143.585 279.001 144.3 279.089 M 219.293 295.6 C 219.293 296.37 219.375 296.685 219.476 296.3 C 219.576 295.915 219.576 295.285 219.476 294.9 C 219.375 294.515 219.293 294.83 219.293 295.6 M 254.985 304.5 L 253 306.6 L 255.1 304.615 C 257.051 302.771 257.383 302.4 257.085 302.4 C 257.022 302.4 256.077 303.345 254.985 304.5 M 169.3 305.091 C 170.125 305.178 171.475 305.178 172.3 305.091 C 173.125 305.005 172.45 304.934 170.8 304.934 C 169.15 304.934 168.475 305.005 169.3 305.091 M 219.363 313.2 C 219.363 316.83 219.423 318.315 219.498 316.5 C 219.572 314.685 219.572 311.715 219.498 309.9 C 219.423 308.085 219.363 309.57 219.363 313.2" stroke-linecap="round"/>
</g>
		<g transform="matrix(1 0 0 1 1.4384 -1.8869)" id="path3">
<path style="stroke: none; stroke-width: 1; stroke-dasharray: none; stroke-linecap: butt; stroke-dashoffset: 0; stroke-linejoin: miter; stroke-miterlimit: 4; is-custom-font: none; font-file-url: none; fill: rgb(124,124,172); fill-opacity: 0; fill-rule: evenodd; opacity: 1;" transform=" translate(-201.4383, -198.113)" d="M 202.248 74.2 C 202.391 74.86 202.666 75.67 202.859 76 C 203.084 76.384 203.118 76.168 202.952 75.4 C 202.809 74.74 202.534 73.93 202.341 73.6 C 202.116 73.216 202.082 73.432 202.248 74.2 M 195.644 81.644 C 195.398 82.351 195.266 83 195.352 83.085 C 195.438 83.171 195.709 82.662 195.956 81.956 C 196.202 81.249 196.334 80.6 196.248 80.515 C 196.162 80.429 195.891 80.938 195.644 81.644 M 194.044 86.444 C 193.798 87.151 193.666 87.8 193.752 87.885 C 193.838 87.971 194.109 87.462 194.356 86.756 C 194.602 86.049 194.734 85.4 194.648 85.315 C 194.562 85.229 194.291 85.738 194.044 86.444 M 199.1 207.082 C 199.595 207.178 200.405 207.178 200.9 207.082 C 201.395 206.987 200.99 206.909 200 206.909 C 199.01 206.909 198.605 206.987 199.1 207.082 M 193.105 207.483 C 193.602 207.579 194.322 207.575 194.705 207.475 C 195.087 207.375 194.68 207.296 193.8 207.301 C 192.92 207.305 192.607 207.387 193.105 207.483 M 205.5 207.482 C 205.995 207.578 206.805 207.578 207.3 207.482 C 207.795 207.387 207.39 207.309 206.4 207.309 C 205.41 207.309 205.005 207.387 205.5 207.482 M 243.744 213.6 C 243.744 215.69 243.812 216.545 243.894 215.5 C 243.976 214.455 243.976 212.745 243.894 211.7 C 243.812 210.655 243.744 211.51 243.744 213.6 M 156.131 213.4 C 156.133 214.94 156.205 215.521 156.292 214.691 C 156.379 213.861 156.377 212.601 156.289 211.891 C 156.2 211.181 156.129 211.86 156.131 213.4 M 125.244 222.044 C 124.998 222.751 124.866 223.4 124.952 223.485 C 125.038 223.571 125.309 223.062 125.556 222.356 C 125.802 221.649 125.934 221 125.848 220.915 C 125.762 220.829 125.491 221.338 125.244 222.044 M 275.844 228.2 C 276.173 229.671 276.402 229.99 276.394 228.967 C 276.391 228.545 276.205 227.93 275.982 227.6 C 275.685 227.162 275.648 227.324 275.844 228.2 M 250.114 241.4 C 250.117 242.5 250.195 242.903 250.287 242.295 C 250.379 241.686 250.377 240.786 250.282 240.295 C 250.187 239.803 250.111 240.3 250.114 241.4 M 149.751 244.4 C 149.751 246.93 149.816 247.965 149.896 246.7 C 149.975 245.435 149.975 243.365 149.896 242.1 C 149.816 240.835 149.751 241.87 149.751 244.4 M 250.128 248 C 250.128 249.43 250.201 250.015 250.289 249.3 C 250.378 248.585 250.378 247.415 250.289 246.7 C 250.201 245.985 250.128 246.57 250.128 248 M 277.693 258.8 C 277.693 259.57 277.775 259.885 277.876 259.5 C 277.976 259.115 277.976 258.485 277.876 258.1 C 277.775 257.715 277.693 258.03 277.693 258.8 M 274.444 272.444 C 274.198 273.151 274.066 273.8 274.152 273.885 C 274.238 273.971 274.509 273.462 274.756 272.756 C 275.002 272.049 275.134 271.4 275.048 271.315 C 274.962 271.229 274.691 271.738 274.444 272.444 M 144.705 278.683 C 145.202 278.779 145.922 278.775 146.305 278.675 C 146.687 278.575 146.28 278.496 145.4 278.501 C 144.52 278.505 144.207 278.587 144.705 278.683 M 146.4 284.525 C 146.4 284.594 146.985 285.179 147.7 285.825 L 149 287 L 147.825 285.7 C 146.73 284.488 146.4 284.216 146.4 284.525 M 219.773 304.8 C 219.773 310.19 219.83 312.395 219.899 309.7 C 219.968 307.005 219.968 302.595 219.899 299.9 C 219.83 297.205 219.773 299.41 219.773 304.8 M 254.989 304.1 L 252.2 307 L 255.1 304.211 C 257.794 301.62 258.183 301.2 257.889 301.2 C 257.828 301.2 256.523 302.505 254.989 304.1 M 143.8 303.6 C 144.883 304.7 145.86 305.6 145.97 305.6 C 146.08 305.6 145.283 304.7 144.2 303.6 C 143.117 302.5 142.14 301.6 142.03 301.6 C 141.92 301.6 142.717 302.5 143.8 303.6 M 179.999 312.481 C 179.89 317.035 179.939 320.622 180.109 320.452 C 180.278 320.282 180.368 316.556 180.308 312.171 L 180.198 304.2 L 179.999 312.481 M 175.3 305.076 C 175.685 305.176 176.315 305.176 176.7 305.076 C 177.085 304.975 176.77 304.893 176 304.893 C 175.23 304.893 174.915 304.975 175.3 305.076 M 174.046 322.437 C 174.565 322.765 177.929 322.972 177.567 322.653 C 177.475 322.572 176.521 322.412 175.446 322.296 C 174.251 322.168 173.707 322.222 174.046 322.437" stroke-linecap="round"/>
</g>
		<g transform="matrix(1 0 0 1 23.0095 26.2826)" id="path4">
<path style="stroke: none; stroke-width: 1; stroke-dasharray: none; stroke-linecap: butt; stroke-dashoffset: 0; stroke-linejoin: miter; stroke-miterlimit: 4; is-custom-font: none; font-file-url: none; fill: rgb(114,112,164); fill-opacity: 0; fill-rule: evenodd; opacity: 1;" transform=" translate(-223.0095, -226.2825)" d="M 195.905 207.483 C 196.402 207.579 197.122 207.575 197.505 207.475 C 197.887 207.375 197.48 207.296 196.6 207.301 C 195.72 207.305 195.407 207.387 195.905 207.483 M 202.705 207.483 C 203.202 207.579 203.922 207.575 204.305 207.475 C 204.687 207.375 204.28 207.296 203.4 207.301 C 202.52 207.305 202.207 207.387 202.705 207.483 M 250.093 244.4 C 250.093 245.17 250.175 245.485 250.276 245.1 C 250.376 244.715 250.376 244.085 250.276 243.7 C 250.175 243.315 250.093 243.63 250.093 244.4" stroke-linecap="round"/>
</g>
</g>
</g>
</svg>