<svg xmlns="http://www.w3.org/2000/svg" xmlns:xlink="http://www.w3.org/1999/xlink" id="svg" width="400" height="400" version="1.1" viewBox="0 0 400 400"><g id="svgg"><path id="path0" fill="#fbfbfb" fill-rule="evenodd" stroke="none" d="M199.609 70.185 C 198.857 71.934,198.390 73.402,196.739 79.200 C 195.061 85.099,191.282 95.233,187.195 104.800 C 183.015 114.585,175.610 129.687,171.603 136.600 C 171.220 137.260,170.230 139.060,169.402 140.600 C 168.095 143.032,167.249 144.512,164.010 150.041 C 161.805 153.803,144.652 183.851,143.596 185.800 C 142.881 187.120,141.702 189.280,140.977 190.600 C 133.195 204.756,127.302 216.846,125.476 222.400 C 123.230 229.231,122.578 232.076,121.535 239.600 C 117.273 270.345,136.198 304.529,165.200 318.468 C 178.915 325.060,180.000 324.620,180.000 312.472 L 180.000 304.507 178.300 304.836 C 170.290 306.386,161.532 304.622,157.243 300.595 C 155.386 298.851,154.959 298.176,152.951 293.804 C 151.354 290.326,148.889 286.911,146.622 285.037 C 141.022 280.408,140.521 279.127,144.101 278.597 C 149.015 277.869,154.243 281.171,158.588 287.745 C 162.326 293.402,167.957 295.910,174.601 294.877 C 179.264 294.152,180.452 293.424,181.004 290.954 C 181.550 288.512,182.786 285.847,184.136 284.203 L 185.119 283.006 182.460 282.524 C 161.847 278.784,152.741 270.120,150.206 251.830 C 148.625 240.427,150.492 231.786,156.081 224.638 C 157.018 223.440,157.531 222.413,157.400 221.999 C 155.590 216.298,155.769 209.455,157.883 203.500 L 158.558 201.600 161.112 201.600 C 165.064 201.600,170.728 203.767,177.555 207.890 L 180.509 209.675 182.755 209.061 C 192.150 206.491,207.775 206.499,217.287 209.078 L 219.575 209.698 222.487 207.895 C 228.975 203.879,233.732 202.013,238.247 201.711 L 241.493 201.494 242.146 203.247 C 244.038 208.327,244.458 214.554,243.251 219.640 L 242.530 222.681 244.327 225.040 C 254.173 237.969,251.963 261.554,239.809 273.252 C 235.428 277.469,222.028 282.800,215.809 282.800 L 214.733 282.800 215.915 284.300 C 219.411 288.736,220.066 292.633,219.928 308.200 C 219.795 323.100,220.030 323.649,225.889 322.131 C 243.869 317.472,264.687 297.660,272.681 277.600 C 280.037 259.144,280.161 234.569,272.979 218.940 C 272.661 218.246,272.400 217.554,272.400 217.400 C 272.400 217.246,272.145 216.554,271.833 215.860 C 271.520 215.167,270.356 212.516,269.245 209.970 C 264.850 199.894,262.338 195.215,245.139 165.074 C 238.133 152.795,232.400 142.698,232.400 142.638 C 232.400 142.577,230.949 139.934,229.175 136.764 C 226.300 131.627,217.905 114.977,214.975 108.600 C 210.115 98.026,203.060 78.475,201.780 72.038 C 201.631 71.289,201.274 70.119,200.986 69.438 L 200.463 68.200 199.609 70.185"/><path id="path1" fill="#04045c" fill-rule="evenodd" stroke="none" d="M70.500 10.693 C 69.125 10.773,68.000 10.978,68.000 11.148 C 68.000 11.318,66.290 11.692,64.200 11.979 C 62.110 12.266,60.400 12.634,60.400 12.796 C 60.400 12.958,59.320 13.320,58.000 13.600 C 56.680 13.880,55.600 14.265,55.600 14.455 C 55.600 14.645,55.298 14.800,54.928 14.800 C 53.996 14.800,51.600 15.699,51.600 16.049 C 51.600 16.207,51.060 16.455,50.401 16.600 C 49.114 16.883,43.970 19.441,42.000 20.778 C 39.589 22.415,38.329 23.200,38.116 23.200 C 37.979 23.200,37.582 23.476,37.234 23.814 C 36.885 24.152,35.519 25.277,34.198 26.314 C 30.466 29.244,22.616 37.359,21.464 39.477 C 21.248 39.875,20.830 40.344,20.535 40.520 C 20.241 40.696,20.000 41.023,20.000 41.247 C 20.000 41.470,19.550 42.243,19.000 42.964 C 18.450 43.686,18.000 44.484,18.000 44.738 C 18.000 44.992,17.857 45.200,17.682 45.200 C 17.507 45.200,16.746 46.415,15.991 47.900 C 15.235 49.385,14.478 50.660,14.309 50.733 C 14.139 50.807,14.000 51.059,14.000 51.295 C 14.000 51.530,13.546 52.682,12.991 53.855 C 12.436 55.028,11.874 56.530,11.741 57.194 C 11.609 57.857,11.365 58.400,11.200 58.400 C 11.035 58.400,10.660 59.480,10.367 60.800 C 10.075 62.120,9.714 63.200,9.566 63.200 C 9.419 63.200,9.072 64.685,8.796 66.500 C 8.520 68.315,8.152 69.982,7.978 70.203 C 6.923 71.551,6.800 85.453,6.800 203.622 C 6.800 321.203,6.917 334.648,7.965 337.000 C 8.161 337.440,8.535 339.104,8.797 340.699 C 9.058 342.293,9.415 343.686,9.590 343.794 C 9.765 343.902,10.025 344.772,10.168 345.728 C 10.312 346.684,10.758 348.081,11.161 348.833 C 11.564 349.585,12.022 350.785,12.178 351.500 C 12.335 352.215,12.609 352.800,12.787 352.800 C 12.965 352.800,13.228 353.424,13.371 354.187 C 13.514 354.950,13.871 355.813,14.163 356.106 C 14.455 356.398,14.820 357.033,14.973 357.516 C 15.127 358.000,15.466 358.621,15.726 358.898 C 15.987 359.174,16.522 360.030,16.916 360.800 C 18.042 362.999,18.700 364.088,19.064 364.354 C 19.250 364.489,19.648 365.079,19.949 365.663 C 20.250 366.248,21.014 367.294,21.648 367.988 C 22.282 368.682,22.800 369.381,22.800 369.541 C 22.800 369.702,23.520 370.495,24.400 371.304 C 25.280 372.113,26.000 372.931,26.000 373.122 C 26.000 373.491,30.352 377.671,33.162 380.000 C 34.091 380.770,35.265 381.805,35.772 382.300 C 36.278 382.795,36.818 383.200,36.973 383.200 C 37.127 383.200,37.843 383.650,38.564 384.200 C 39.286 384.750,40.084 385.200,40.338 385.200 C 40.592 385.200,40.800 385.368,40.800 385.574 C 40.800 385.780,41.430 386.176,42.200 386.454 C 42.970 386.733,43.600 387.068,43.600 387.198 C 43.600 387.329,44.725 387.994,46.100 388.676 C 48.384 389.808,49.379 390.263,53.600 392.105 C 54.370 392.441,55.630 392.845,56.400 393.004 C 57.170 393.163,57.980 393.428,58.200 393.594 C 58.420 393.760,59.590 394.112,60.800 394.376 C 62.010 394.641,63.360 395.021,63.800 395.221 C 64.893 395.718,70.801 396.400,74.010 396.400 C 75.456 396.400,76.821 396.581,77.041 396.801 C 77.484 397.244,321.870 397.102,325.400 396.657 C 326.500 396.519,329.425 396.203,331.900 395.955 C 334.375 395.707,336.400 395.387,336.400 395.243 C 336.400 395.100,337.610 394.753,339.088 394.473 C 340.566 394.192,341.871 393.812,341.988 393.628 C 342.105 393.444,343.235 393.080,344.500 392.818 C 345.765 392.557,346.800 392.176,346.800 391.972 C 346.800 391.767,347.115 391.599,347.500 391.598 C 347.885 391.598,349.280 391.058,350.600 390.400 C 351.920 389.742,353.210 389.202,353.467 389.202 C 353.723 389.201,353.993 389.061,354.067 388.891 C 354.140 388.722,355.415 387.965,356.900 387.209 C 358.385 386.454,359.600 385.722,359.600 385.582 C 359.600 385.443,360.057 385.120,360.615 384.866 C 361.636 384.401,362.206 383.991,363.629 382.700 C 364.053 382.315,364.570 382.000,364.777 382.000 C 364.985 382.000,365.390 381.682,365.677 381.293 C 365.965 380.904,366.650 380.297,367.200 379.944 C 368.499 379.110,375.910 371.699,376.744 370.400 C 377.097 369.850,377.704 369.165,378.093 368.877 C 378.482 368.590,378.800 368.114,378.800 367.820 C 378.800 367.526,379.070 367.182,379.400 367.055 C 379.730 366.929,380.000 366.627,380.000 366.386 C 380.000 366.144,380.450 365.357,381.000 364.636 C 381.550 363.914,382.000 363.136,382.000 362.905 C 382.000 362.674,382.253 362.388,382.562 362.270 C 382.872 362.151,383.246 361.502,383.394 360.827 C 383.542 360.152,383.792 359.600,383.950 359.600 C 384.454 359.600,388.400 351.331,388.400 350.274 C 388.400 349.903,388.551 349.600,388.736 349.600 C 388.921 349.600,389.315 348.565,389.613 347.300 C 389.910 346.035,390.293 344.903,390.463 344.785 C 390.634 344.666,390.998 343.226,391.272 341.585 C 391.546 339.943,391.892 338.510,392.040 338.400 C 393.100 337.612,393.200 326.042,393.200 203.569 C 393.200 81.104,393.113 71.075,392.023 68.600 C 391.830 68.160,391.448 66.630,391.176 65.200 C 390.903 63.770,390.553 62.420,390.398 62.200 C 390.243 61.980,389.903 60.928,389.643 59.863 C 389.383 58.797,388.924 57.537,388.624 57.063 C 388.324 56.588,387.957 55.615,387.807 54.900 C 387.658 54.185,387.400 53.600,387.232 53.600 C 387.065 53.600,386.690 52.880,386.400 52.000 C 386.110 51.120,385.757 50.400,385.616 50.400 C 385.476 50.400,385.121 49.737,384.828 48.927 C 384.535 48.117,384.137 47.262,383.942 47.027 C 383.310 46.263,381.600 43.571,381.600 43.340 C 381.600 42.917,376.705 36.601,375.952 36.051 C 375.538 35.749,375.200 35.315,375.200 35.087 C 375.200 34.475,369.545 29.074,365.477 25.800 C 362.953 23.768,361.580 22.800,361.223 22.800 C 360.991 22.800,360.800 22.632,360.800 22.426 C 360.800 22.220,360.170 21.824,359.400 21.546 C 358.630 21.267,358.000 20.886,358.000 20.699 C 358.000 20.512,357.460 20.170,356.800 19.940 C 356.140 19.710,355.600 19.388,355.600 19.224 C 355.600 19.061,354.880 18.711,354.000 18.447 C 353.120 18.184,352.400 17.795,352.400 17.584 C 352.400 17.373,352.192 17.200,351.939 17.200 C 351.685 17.200,350.518 16.746,349.345 16.191 C 348.172 15.636,346.670 15.074,346.006 14.941 C 345.343 14.809,344.800 14.571,344.800 14.414 C 344.800 14.256,343.765 13.897,342.500 13.615 C 341.235 13.334,340.110 12.966,340.000 12.797 C 339.890 12.628,338.090 12.254,336.000 11.966 C 333.910 11.678,332.072 11.252,331.915 11.021 C 331.648 10.627,77.129 10.308,70.500 10.693 M201.410 69.300 C 201.564 70.235,201.825 71.180,201.989 71.400 C 202.153 71.620,202.404 72.430,202.547 73.200 C 202.834 74.748,204.673 80.942,205.219 82.200 C 205.410 82.640,205.757 83.750,205.990 84.667 C 206.222 85.583,206.679 86.843,207.004 87.467 C 207.329 88.090,207.602 88.870,207.611 89.200 C 207.620 89.530,207.975 90.520,208.400 91.400 C 208.825 92.280,209.179 93.166,209.186 93.369 C 209.199 93.701,210.725 97.793,211.585 99.800 C 212.253 101.358,214.089 105.513,216.049 109.900 C 218.161 114.629,225.561 129.390,227.669 133.079 C 228.951 135.322,230.000 137.253,230.000 137.370 C 230.000 137.541,251.470 175.439,252.790 177.600 C 253.964 179.520,257.200 185.221,257.200 185.369 C 257.200 185.466,258.505 187.855,260.100 190.680 C 263.915 197.435,267.864 205.465,270.624 212.080 C 271.203 213.466,271.921 215.140,272.220 215.800 C 274.381 220.567,276.658 228.381,277.873 235.200 C 278.672 239.685,278.780 255.310,278.043 259.800 C 277.242 264.683,274.792 273.957,273.801 275.856 C 273.473 276.485,273.204 277.145,273.202 277.322 C 273.187 279.304,266.462 291.144,262.343 296.441 C 250.120 312.158,225.347 327.070,220.334 321.729 L 219.400 320.734 219.383 306.867 C 219.363 290.592,219.054 288.876,215.317 284.269 C 214.031 282.683,214.130 282.510,216.500 282.205 C 219.506 281.818,226.776 280.075,228.260 279.385 C 228.954 279.063,229.674 278.798,229.860 278.795 C 230.450 278.786,234.621 276.562,236.962 275.008 C 250.707 265.884,254.486 239.254,244.002 225.402 L 241.896 222.620 242.648 220.410 C 244.341 215.437,243.034 203.195,240.675 201.933 C 239.887 201.512,237.933 201.789,234.000 202.880 C 230.925 203.734,224.270 207.005,221.313 209.117 L 220.029 210.034 215.915 209.200 C 207.655 207.525,192.861 207.064,188.400 208.343 C 187.630 208.563,185.521 209.034,183.713 209.389 C 180.103 210.097,180.420 210.168,176.600 207.778 C 175.262 206.940,172.413 205.524,168.200 203.602 C 167.760 203.401,166.680 203.059,165.800 202.842 C 164.920 202.625,163.364 202.238,162.342 201.983 C 159.245 201.210,158.625 201.733,157.577 206.000 C 156.246 211.419,156.211 215.480,157.455 220.255 L 158.094 222.710 156.479 224.855 C 145.503 239.431,149.302 266.399,163.600 275.413 C 165.734 276.758,169.658 278.788,170.140 278.795 C 170.326 278.798,171.046 279.063,171.740 279.385 C 173.224 280.075,180.494 281.818,183.500 282.205 C 185.874 282.510,185.973 282.686,184.667 284.269 C 183.180 286.072,182.432 287.595,181.479 290.764 L 180.588 293.728 178.394 294.529 C 170.614 297.368,162.552 294.532,157.722 287.257 C 154.090 281.785,150.814 279.520,146.176 279.277 C 141.386 279.025,141.035 280.543,145.252 283.270 C 148.054 285.083,150.995 288.979,153.765 294.548 C 157.000 301.051,159.893 303.331,166.330 304.452 C 168.912 304.902,177.493 304.708,179.500 304.155 L 180.400 303.907 180.400 312.372 C 180.400 324.359,178.512 325.543,167.800 320.271 C 167.140 319.946,165.520 319.184,164.200 318.578 C 161.978 317.558,160.863 316.903,155.400 313.404 C 144.270 306.278,133.077 292.814,127.628 280.000 C 126.927 278.350,126.190 276.640,125.990 276.200 C 122.206 267.853,119.634 248.115,121.169 239.200 C 122.813 229.652,123.710 225.518,124.403 224.305 C 124.621 223.923,124.800 223.413,124.800 223.172 C 124.800 222.795,125.999 219.615,127.719 215.431 C 128.236 214.175,134.344 202.027,136.283 198.400 C 136.930 197.190,138.325 194.580,139.382 192.600 C 140.439 190.620,141.977 187.830,142.799 186.400 C 143.621 184.970,144.919 182.630,145.684 181.200 C 148.458 176.009,149.723 173.788,150.256 173.169 C 150.555 172.821,150.800 172.415,150.800 172.266 C 150.800 172.118,152.105 169.741,153.700 166.985 C 155.295 164.230,156.921 161.396,157.313 160.688 C 157.706 159.979,158.426 158.735,158.913 157.923 C 160.998 154.450,170.435 137.964,171.806 135.400 C 173.696 131.867,178.378 122.924,179.032 121.600 C 181.004 117.605,184.235 110.633,185.984 106.600 C 187.129 103.960,188.320 101.233,188.633 100.540 C 188.945 99.846,189.200 99.154,189.200 99.000 C 189.200 98.846,189.463 98.154,189.785 97.460 C 190.107 96.767,190.920 94.670,191.593 92.800 C 192.265 90.930,192.979 89.040,193.180 88.600 C 193.380 88.160,193.749 87.080,194.000 86.200 C 194.251 85.320,194.612 84.240,194.803 83.800 C 195.345 82.548,197.142 76.517,197.430 74.978 C 197.574 74.215,197.850 73.493,198.045 73.372 C 198.240 73.251,198.400 72.866,198.400 72.515 C 198.400 71.625,200.346 67.600,200.777 67.600 C 200.971 67.600,201.256 68.365,201.410 69.300"/><path id="path2" fill="#524f8c" fill-rule="evenodd" stroke="none" d="M198.900 207.487 C 199.505 207.578,200.495 207.578,201.100 207.487 C 201.705 207.395,201.210 207.320,200.000 207.320 C 198.790 207.320,198.295 207.395,198.900 207.487 M120.967 247.600 C 120.967 251.890,121.026 253.645,121.098 251.500 C 121.170 249.355,121.170 245.845,121.098 243.700 C 121.026 241.555,120.967 243.310,120.967 247.600 M278.555 248.200 C 278.556 251.060,278.620 252.178,278.697 250.683 C 278.774 249.189,278.774 246.849,278.696 245.483 C 278.618 244.118,278.555 245.340,278.555 248.200 M156.800 269.325 C 156.800 269.394,157.385 269.979,158.100 270.625 L 159.400 271.800 158.225 270.500 C 157.130 269.288,156.800 269.016,156.800 269.325 M144.300 279.089 C 145.015 279.178,146.185 279.178,146.900 279.089 C 147.615 279.001,147.030 278.928,145.600 278.928 C 144.170 278.928,143.585 279.001,144.300 279.089 M219.293 295.600 C 219.293 296.370,219.375 296.685,219.476 296.300 C 219.576 295.915,219.576 295.285,219.476 294.900 C 219.375 294.515,219.293 294.830,219.293 295.600 M254.985 304.500 L 253.000 306.600 255.100 304.615 C 257.051 302.771,257.383 302.400,257.085 302.400 C 257.022 302.400,256.077 303.345,254.985 304.500 M169.300 305.091 C 170.125 305.178,171.475 305.178,172.300 305.091 C 173.125 305.005,172.450 304.934,170.800 304.934 C 169.150 304.934,168.475 305.005,169.300 305.091 M219.363 313.200 C 219.363 316.830,219.423 318.315,219.498 316.500 C 219.572 314.685,219.572 311.715,219.498 309.900 C 219.423 308.085,219.363 309.570,219.363 313.200"/><path id="path3" fill="#7c7cac" fill-rule="evenodd" stroke="none" d="M202.248 74.200 C 202.391 74.860,202.666 75.670,202.859 76.000 C 203.084 76.384,203.118 76.168,202.952 75.400 C 202.809 74.740,202.534 73.930,202.341 73.600 C 202.116 73.216,202.082 73.432,202.248 74.200 M195.644 81.644 C 195.398 82.351,195.266 83.000,195.352 83.085 C 195.438 83.171,195.709 82.662,195.956 81.956 C 196.202 81.249,196.334 80.600,196.248 80.515 C 196.162 80.429,195.891 80.938,195.644 81.644 M194.044 86.444 C 193.798 87.151,193.666 87.800,193.752 87.885 C 193.838 87.971,194.109 87.462,194.356 86.756 C 194.602 86.049,194.734 85.400,194.648 85.315 C 194.562 85.229,194.291 85.738,194.044 86.444 M199.100 207.082 C 199.595 207.178,200.405 207.178,200.900 207.082 C 201.395 206.987,200.990 206.909,200.000 206.909 C 199.010 206.909,198.605 206.987,199.100 207.082 M193.105 207.483 C 193.602 207.579,194.322 207.575,194.705 207.475 C 195.087 207.375,194.680 207.296,193.800 207.301 C 192.920 207.305,192.607 207.387,193.105 207.483 M205.500 207.482 C 205.995 207.578,206.805 207.578,207.300 207.482 C 207.795 207.387,207.390 207.309,206.400 207.309 C 205.410 207.309,205.005 207.387,205.500 207.482 M243.744 213.600 C 243.744 215.690,243.812 216.545,243.894 215.500 C 243.976 214.455,243.976 212.745,243.894 211.700 C 243.812 210.655,243.744 211.510,243.744 213.600 M156.131 213.400 C 156.133 214.940,156.205 215.521,156.292 214.691 C 156.379 213.861,156.377 212.601,156.289 211.891 C 156.200 211.181,156.129 211.860,156.131 213.400 M125.244 222.044 C 124.998 222.751,124.866 223.400,124.952 223.485 C 125.038 223.571,125.309 223.062,125.556 222.356 C 125.802 221.649,125.934 221.000,125.848 220.915 C 125.762 220.829,125.491 221.338,125.244 222.044 M275.844 228.200 C 276.173 229.671,276.402 229.990,276.394 228.967 C 276.391 228.545,276.205 227.930,275.982 227.600 C 275.685 227.162,275.648 227.324,275.844 228.200 M250.114 241.400 C 250.117 242.500,250.195 242.903,250.287 242.295 C 250.379 241.686,250.377 240.786,250.282 240.295 C 250.187 239.803,250.111 240.300,250.114 241.400 M149.751 244.400 C 149.751 246.930,149.816 247.965,149.896 246.700 C 149.975 245.435,149.975 243.365,149.896 242.100 C 149.816 240.835,149.751 241.870,149.751 244.400 M250.128 248.000 C 250.128 249.430,250.201 250.015,250.289 249.300 C 250.378 248.585,250.378 247.415,250.289 246.700 C 250.201 245.985,250.128 246.570,250.128 248.000 M277.693 258.800 C 277.693 259.570,277.775 259.885,277.876 259.500 C 277.976 259.115,277.976 258.485,277.876 258.100 C 277.775 257.715,277.693 258.030,277.693 258.800 M274.444 272.444 C 274.198 273.151,274.066 273.800,274.152 273.885 C 274.238 273.971,274.509 273.462,274.756 272.756 C 275.002 272.049,275.134 271.400,275.048 271.315 C 274.962 271.229,274.691 271.738,274.444 272.444 M144.705 278.683 C 145.202 278.779,145.922 278.775,146.305 278.675 C 146.687 278.575,146.280 278.496,145.400 278.501 C 144.520 278.505,144.207 278.587,144.705 278.683 M146.400 284.525 C 146.400 284.594,146.985 285.179,147.700 285.825 L 149.000 287.000 147.825 285.700 C 146.730 284.488,146.400 284.216,146.400 284.525 M219.773 304.800 C 219.773 310.190,219.830 312.395,219.899 309.700 C 219.968 307.005,219.968 302.595,219.899 299.900 C 219.830 297.205,219.773 299.410,219.773 304.800 M254.989 304.100 L 252.200 307.000 255.100 304.211 C 257.794 301.620,258.183 301.200,257.889 301.200 C 257.828 301.200,256.523 302.505,254.989 304.100 M143.800 303.600 C 144.883 304.700,145.860 305.600,145.970 305.600 C 146.080 305.600,145.283 304.700,144.200 303.600 C 143.117 302.500,142.140 301.600,142.030 301.600 C 141.920 301.600,142.717 302.500,143.800 303.600 M179.999 312.481 C 179.890 317.035,179.939 320.622,180.109 320.452 C 180.278 320.282,180.368 316.556,180.308 312.171 L 180.198 304.200 179.999 312.481 M175.300 305.076 C 175.685 305.176,176.315 305.176,176.700 305.076 C 177.085 304.975,176.770 304.893,176.000 304.893 C 175.230 304.893,174.915 304.975,175.300 305.076 M174.046 322.437 C 174.565 322.765,177.929 322.972,177.567 322.653 C 177.475 322.572,176.521 322.412,175.446 322.296 C 174.251 322.168,173.707 322.222,174.046 322.437"/><path id="path4" fill="#7270a4" fill-rule="evenodd" stroke="none" d="M195.905 207.483 C 196.402 207.579,197.122 207.575,197.505 207.475 C 197.887 207.375,197.480 207.296,196.600 207.301 C 195.720 207.305,195.407 207.387,195.905 207.483 M202.705 207.483 C 203.202 207.579,203.922 207.575,204.305 207.475 C 204.687 207.375,204.280 207.296,203.400 207.301 C 202.520 207.305,202.207 207.387,202.705 207.483 M250.093 244.400 C 250.093 245.170,250.175 245.485,250.276 245.100 C 250.376 244.715,250.376 244.085,250.276 243.700 C 250.175 243.315,250.093 243.630,250.093 244.400"/></g></svg>